<svg width="174" height="40" viewBox="0 0 174 40" fill="none" xmlns="http://www.w3.org/2000/svg">
<path d="M16.043 27.3064C13.8667 26.498 11.6281 26.3737 9.57614 26.9333C8.14596 27.3064 6.77796 28.0526 5.53432 28.9853L4.66376 29.7315L4.41504 29.9802L4.97467 30.4777C5.03685 30.4777 5.03686 30.5399 5.09904 30.602C5.22341 30.7264 5.34778 30.7886 5.53432 30.9129L5.9074 31.1617L6.28049 30.8508C6.34268 30.7886 6.46704 30.6642 6.5914 30.602C7.71068 29.6693 8.95431 29.0475 10.2601 28.7366C11.939 28.3013 13.7423 28.3635 15.5456 29.0475C17.0379 29.6071 20.0849 30.2911 23.7536 28.7366L23.878 28.6744L24.0645 28.4879C24.0645 28.4257 24.1267 28.4257 24.1889 28.3635C24.4998 27.9904 24.8107 27.6173 25.0594 27.182L26.303 25.2544L24.3132 26.3737C21.3907 27.9904 18.7169 28.3013 16.043 27.3064Z" fill="#007AFF"/>
<path d="M7.52364 20.5906C9.20255 20.1553 11.0058 20.2175 12.8091 20.9015C14.7989 21.6477 19.8978 22.7048 25.6186 17.5437L26.5513 16.611L26.6135 16.5488L26.8622 16.3001L26.7378 15.9891C26.6756 15.7404 26.5513 15.4295 26.4269 15.1186L26.116 14.248L25.4942 14.8699C25.432 14.9942 25.3076 15.0564 25.1833 15.1808C22.4473 17.979 18.2189 20.8393 13.3687 19.0982C11.1924 18.2899 8.95382 18.1655 6.90182 18.7251C4.91201 19.2848 3.17091 20.3419 1.55418 21.8342V21.7721L0.621456 22.767C0.621456 22.8291 0.559286 22.8292 0.497104 22.8913L0.310547 23.0779L0.372732 23.3266C0.434914 23.6375 0.559274 23.9484 0.621456 24.2593L0.994551 25.2542L1.61637 24.4459C1.67855 24.3215 1.80291 24.2593 1.86509 24.135C3.17091 22.9535 4.97419 21.2746 7.52364 20.5906Z" fill="#007AFF"/>
<path d="M1.49238 19.4715C2.92256 17.9792 4.53928 17.0464 6.28037 16.549C7.95928 16.1137 9.76255 16.1759 11.5658 16.8599C17.1622 18.9119 22.0124 15.5541 24.1266 13.7508L24.9349 12.9424L25.2458 12.6937L24.9971 12.3206C24.8106 12.1341 24.6862 11.8854 24.4997 11.6366L24.1266 11.1392L23.6913 11.5744C23.6291 11.6366 23.5047 11.761 23.4426 11.8232C20.8309 14.3104 16.7891 16.8599 12.1876 15.1188C10.0113 14.3104 7.77273 14.1861 5.72074 14.7457C4.41492 15.1188 3.17128 15.7406 1.92764 16.549L0.621818 17.6061C0.497455 17.7304 0.435273 17.7926 0.310909 17.917L0.186557 18.0413V18.2279C0.124375 18.6632 0.124367 19.0984 0.0621856 19.4715L0 21.0261L1.0571 19.9068C1.18146 19.7824 1.30583 19.5959 1.49238 19.4715Z" fill="#007AFF"/>
<path d="M17.8466 31.5349L17.7222 31.908L17.8466 31.5349C17.66 31.4727 17.5357 31.4105 17.3491 31.3483C15.1728 30.54 12.9342 30.4156 10.8822 30.9753C10.4469 31.0996 10.0117 31.224 9.57639 31.4105L8.08401 32.0945L7.71094 32.2811L8.95457 32.7163C9.32766 32.8407 9.70075 32.9651 10.0738 33.0894L10.2604 33.1516L10.4469 33.0894C10.6335 33.0273 10.82 32.9029 11.0066 32.9029C11.1309 32.9029 11.2553 32.8407 11.3797 32.7785C12.872 32.4054 14.4887 32.4054 16.2298 32.9651C16.4164 33.0272 16.5408 33.0894 16.7273 33.1516L17.0382 33.276L17.2247 33.2138C17.66 33.0894 18.1575 32.9651 18.5306 32.7785L20.2717 32.1567L18.4684 31.7214C18.2818 31.6592 18.0331 31.5971 17.8466 31.5349Z" fill="#007AFF"/>
<path d="M27.3597 18.6631L26.427 19.5958C26.3027 19.7202 26.1783 19.8445 26.0539 19.9689C23.5045 22.394 19.4005 25.0056 14.799 23.2645C12.6227 22.4562 10.3841 22.3318 8.33213 22.8915C6.40449 23.4511 4.66338 24.446 3.10884 25.9384L2.30048 26.8089L2.05176 27.1198L2.30048 27.4929C2.48703 27.7416 2.6114 27.9282 2.73576 28.1769L3.10884 28.7365L3.54412 28.1769C3.6063 28.1147 3.73066 27.9904 3.79284 27.9282C5.2852 26.3114 6.90193 25.3165 8.76739 24.8191C10.4463 24.3838 12.2496 24.446 14.0528 25.13C15.6074 25.6896 17.2241 25.8762 18.8408 25.6896C21.7012 25.3787 24.5616 23.762 26.6758 21.9587C26.8001 21.8344 26.9245 21.7722 27.0488 21.6478L27.2354 21.4613V21.2747C27.2354 20.9016 27.2976 20.4664 27.2976 20.0933L27.3597 18.6631Z" fill="#007AFF"/>
<path d="M3.73045 12.9423L3.54391 12.5692L3.73045 12.9423C4.10354 12.7557 4.53883 12.6313 4.91192 12.507C6.59083 12.0717 8.3941 12.1339 10.1974 12.8179C11.3788 13.2532 12.5603 13.4397 13.8661 13.4397C16.4777 13.4397 19.0894 12.507 21.5145 10.7037L22.4472 9.95752L22.7581 9.70879L22.1985 9.27351C22.0119 9.08697 21.7632 8.90043 21.5145 8.77607L21.1414 8.52734L20.8305 8.77607C20.7061 8.83825 20.6439 8.96261 20.5195 9.02479C17.2239 11.5121 13.9283 12.1961 10.8192 11.0146C8.58065 10.2063 6.34209 10.0197 4.10355 10.7037C3.917 10.7659 3.73045 10.8281 3.48173 10.8902L3.35738 10.9524L3.17082 11.139C3.17082 11.2012 3.10865 11.2012 3.04647 11.2633C2.79774 11.6364 2.48682 11.9473 2.23809 12.3204L1.05664 14.1237L2.98428 13.1288C3.29519 13.1288 3.54391 13.0044 3.73045 12.9423Z" fill="#007AFF"/>
<path d="M8.82967 8.71393L9.01621 8.77611C9.82457 9.08702 11.0682 9.39793 12.6228 9.39793C14.2395 9.39793 15.794 9.02484 17.3486 8.40302L19.2762 7.47029L17.9704 7.03503C17.5973 6.91067 17.2242 6.7863 16.7889 6.72412H16.6024L16.4159 6.78629C16.2293 6.84847 16.0428 6.97285 15.8562 7.03503C13.9908 7.71903 12.1253 7.84339 10.322 7.34594C10.1355 7.28376 9.94894 7.22156 9.7624 7.15938L9.57586 7.0972L9.3893 7.15938C9.01621 7.28375 8.64313 7.40812 8.27004 7.59466L6.83984 8.21648L8.33222 8.65174C8.45659 8.58956 8.64312 8.65175 8.82967 8.71393Z" fill="#007AFF"/>
<path d="M39.8041 30.5V10.76H52.8241V13.588H43.4161V19.188H52.1801V22.016H43.4161V30.5H39.8041ZM55.5476 30.5V16.36H59.0476V30.5H55.5476ZM55.3516 13.7V10.284H59.2436V13.7H55.3516ZM62.8483 30.5V19.888C62.8483 19.3093 62.8297 18.7213 62.7923 18.124C62.755 17.5267 62.699 16.9387 62.6243 16.36H66.0123L66.2923 19.16H65.9563C66.4043 18.1707 67.067 17.4147 67.9443 16.892C68.8217 16.3507 69.839 16.08 70.9963 16.08C72.6577 16.08 73.9083 16.5467 74.7483 17.48C75.5883 18.4133 76.0083 19.8693 76.0083 21.848V30.5H72.5083V22.016C72.5083 20.8773 72.2843 20.0653 71.8363 19.58C71.407 19.076 70.7537 18.824 69.8763 18.824C68.7937 18.824 67.935 19.16 67.3003 19.832C66.6657 20.504 66.3483 21.4 66.3483 22.52V30.5H62.8483ZM85.1794 30.78C83.9474 30.78 82.8648 30.4907 81.9314 29.912C80.9981 29.3147 80.2701 28.4653 79.7474 27.364C79.2248 26.2627 78.9634 24.9467 78.9634 23.416C78.9634 21.8853 79.2248 20.5787 79.7474 19.496C80.2701 18.3947 80.9981 17.5547 81.9314 16.976C82.8648 16.3787 83.9474 16.08 85.1794 16.08C86.3741 16.08 87.4194 16.3787 88.3154 16.976C89.2301 17.5547 89.8368 18.3387 90.1354 19.328H89.8274L90.1354 16.36H93.4954C93.4394 16.9387 93.3834 17.5267 93.3274 18.124C93.2901 18.7213 93.2714 19.3093 93.2714 19.888V30.5H89.7994L89.7714 27.588H90.1074C89.8088 28.5587 89.2021 29.3333 88.2874 29.912C87.3728 30.4907 86.3368 30.78 85.1794 30.78ZM86.1594 28.092C87.2608 28.092 88.1474 27.7093 88.8194 26.944C89.4914 26.16 89.8274 24.984 89.8274 23.416C89.8274 21.848 89.4914 20.6813 88.8194 19.916C88.1474 19.1507 87.2608 18.768 86.1594 18.768C85.0581 18.768 84.1714 19.1507 83.4994 19.916C82.8274 20.6813 82.4914 21.848 82.4914 23.416C82.4914 24.984 82.8181 26.16 83.4714 26.944C84.1434 27.7093 85.0394 28.092 86.1594 28.092ZM97.0827 30.5V19.888C97.0827 19.3093 97.064 18.7213 97.0267 18.124C96.9894 17.5267 96.9334 16.9387 96.8587 16.36H100.247L100.527 19.16H100.191C100.639 18.1707 101.301 17.4147 102.179 16.892C103.056 16.3507 104.073 16.08 105.231 16.08C106.892 16.08 108.143 16.5467 108.983 17.48C109.823 18.4133 110.243 19.8693 110.243 21.848V30.5H106.743V22.016C106.743 20.8773 106.519 20.0653 106.071 19.58C105.641 19.076 104.988 18.824 104.111 18.824C103.028 18.824 102.169 19.16 101.535 19.832C100.9 20.504 100.583 21.4 100.583 22.52V30.5H97.0827ZM120.45 30.78C118.994 30.78 117.715 30.4813 116.614 29.884C115.531 29.2867 114.691 28.4373 114.094 27.336C113.496 26.216 113.198 24.8907 113.198 23.36C113.198 21.8293 113.496 20.5227 114.094 19.44C114.71 18.3573 115.559 17.5267 116.642 16.948C117.724 16.3693 118.994 16.08 120.45 16.08C121.383 16.08 122.288 16.2293 123.166 16.528C124.062 16.808 124.79 17.2187 125.35 17.76L124.286 20.196C123.782 19.7293 123.212 19.384 122.578 19.16C121.962 18.9173 121.355 18.796 120.758 18.796C119.507 18.796 118.527 19.188 117.818 19.972C117.127 20.756 116.782 21.8947 116.782 23.388C116.782 24.8813 117.127 26.0293 117.818 26.832C118.527 27.6347 119.507 28.036 120.758 28.036C121.336 28.036 121.934 27.924 122.55 27.7C123.184 27.476 123.763 27.1307 124.286 26.664L125.35 29.072C124.771 29.6133 124.034 30.0333 123.138 30.332C122.26 30.6307 121.364 30.78 120.45 30.78ZM134.622 30.78C132.251 30.78 130.394 30.1267 129.05 28.82C127.706 27.5133 127.034 25.7213 127.034 23.444C127.034 21.9693 127.323 20.6813 127.902 19.58C128.48 18.4787 129.283 17.62 130.31 17.004C131.355 16.388 132.568 16.08 133.95 16.08C135.312 16.08 136.451 16.3693 137.366 16.948C138.28 17.5267 138.971 18.3387 139.438 19.384C139.923 20.4293 140.166 21.652 140.166 23.052V23.976H129.862V22.128H137.674L137.198 22.52C137.198 21.2133 136.918 20.2147 136.358 19.524C135.816 18.8333 135.023 18.488 133.978 18.488C132.82 18.488 131.924 18.8987 131.29 19.72C130.674 20.5413 130.366 21.6893 130.366 23.164V23.528C130.366 25.0587 130.739 26.2067 131.486 26.972C132.251 27.7187 133.324 28.092 134.706 28.092C135.508 28.092 136.255 27.9893 136.946 27.784C137.655 27.56 138.327 27.2053 138.962 26.72L139.998 29.072C139.326 29.6133 138.523 30.0333 137.59 30.332C136.656 30.6307 135.667 30.78 134.622 30.78ZM141.002 30.5L149.122 19.692V21.232L141.282 10.76H145.51L151.194 18.628H150.046L155.702 10.76H159.958L152.09 21.232V19.692L160.238 30.5H155.982L149.99 22.268H151.222L145.23 30.5H141.002Z" fill="white"/>
</svg>
