<svg width="174" height="39" viewBox="0 0 174 39" fill="none" xmlns="http://www.w3.org/2000/svg">
<path d="M16.043 26.8064C13.8667 25.998 11.6281 25.8737 9.57614 26.4333C8.14596 26.8064 6.77796 27.5526 5.53432 28.4853L4.66376 29.2315L4.41504 29.4802L4.97467 29.9777C5.03685 29.9777 5.03686 30.0399 5.09904 30.102C5.22341 30.2264 5.34778 30.2886 5.53432 30.4129L5.9074 30.6617L6.28049 30.3508C6.34268 30.2886 6.46704 30.1642 6.5914 30.102C7.71068 29.1693 8.95431 28.5475 10.2601 28.2366C11.939 27.8013 13.7423 27.8635 15.5456 28.5475C17.0379 29.1071 20.0849 29.7911 23.7536 28.2366L23.878 28.1744L24.0645 27.9879C24.0645 27.9257 24.1267 27.9257 24.1889 27.8635C24.4998 27.4904 24.8107 27.1173 25.0594 26.682L26.303 24.7544L24.3132 25.8737C21.3907 27.4904 18.7169 27.8013 16.043 26.8064Z" fill="#007AFF"/>
<path d="M7.52364 20.0906C9.20255 19.6553 11.0058 19.7175 12.8091 20.4015C14.7989 21.1477 19.8978 22.2048 25.6186 17.0437L26.5513 16.111L26.6135 16.0488L26.8622 15.8001L26.7378 15.4891C26.6756 15.2404 26.5513 14.9295 26.4269 14.6186L26.116 13.748L25.4942 14.3699C25.432 14.4942 25.3076 14.5564 25.1833 14.6808C22.4473 17.479 18.2189 20.3393 13.3687 18.5982C11.1924 17.7899 8.95382 17.6655 6.90182 18.2251C4.91201 18.7848 3.17091 19.8419 1.55418 21.3342V21.2721L0.621456 22.267C0.621456 22.3291 0.559286 22.3292 0.497104 22.3913L0.310547 22.5779L0.372732 22.8266C0.434914 23.1375 0.559274 23.4484 0.621456 23.7593L0.994551 24.7542L1.61637 23.9459C1.67855 23.8215 1.80291 23.7593 1.86509 23.635C3.17091 22.4535 4.97419 20.7746 7.52364 20.0906Z" fill="#007AFF"/>
<path d="M1.49238 18.9715C2.92256 17.4792 4.53928 16.5464 6.28037 16.049C7.95928 15.6137 9.76255 15.6759 11.5658 16.3599C17.1622 18.4119 22.0124 15.0541 24.1266 13.2508L24.9349 12.4424L25.2458 12.1937L24.9971 11.8206C24.8106 11.6341 24.6862 11.3854 24.4997 11.1366L24.1266 10.6392L23.6913 11.0744C23.6291 11.1366 23.5047 11.261 23.4426 11.3232C20.8309 13.8104 16.7891 16.3599 12.1876 14.6188C10.0113 13.8104 7.77273 13.6861 5.72074 14.2457C4.41492 14.6188 3.17128 15.2406 1.92764 16.049L0.621818 17.1061C0.497455 17.2304 0.435273 17.2926 0.310909 17.417L0.186557 17.5413V17.7279C0.124375 18.1632 0.124367 18.5984 0.0621856 18.9715L0 20.5261L1.0571 19.4068C1.18146 19.2824 1.30583 19.0959 1.49238 18.9715Z" fill="#007AFF"/>
<path d="M17.8466 31.0349L17.7222 31.408L17.8466 31.0349C17.66 30.9727 17.5357 30.9105 17.3491 30.8483C15.1728 30.04 12.9342 29.9156 10.8822 30.4753C10.4469 30.5996 10.0117 30.724 9.57639 30.9105L8.08401 31.5945L7.71094 31.7811L8.95457 32.2163C9.32766 32.3407 9.70075 32.4651 10.0738 32.5894L10.2604 32.6516L10.4469 32.5894C10.6335 32.5273 10.82 32.4029 11.0066 32.4029C11.1309 32.4029 11.2553 32.3407 11.3797 32.2785C12.872 31.9054 14.4887 31.9054 16.2298 32.4651C16.4164 32.5272 16.5408 32.5894 16.7273 32.6516L17.0382 32.776L17.2247 32.7138C17.66 32.5894 18.1575 32.4651 18.5306 32.2785L20.2717 31.6567L18.4684 31.2214C18.2818 31.1592 18.0331 31.0971 17.8466 31.0349Z" fill="#007AFF"/>
<path d="M27.3597 18.1631L26.427 19.0958C26.3027 19.2202 26.1783 19.3445 26.0539 19.4689C23.5045 21.894 19.4005 24.5056 14.799 22.7645C12.6227 21.9562 10.3841 21.8318 8.33213 22.3915C6.40449 22.9511 4.66338 23.946 3.10884 25.4384L2.30048 26.3089L2.05176 26.6198L2.30048 26.9929C2.48703 27.2416 2.6114 27.4282 2.73576 27.6769L3.10884 28.2365L3.54412 27.6769C3.6063 27.6147 3.73066 27.4904 3.79284 27.4282C5.2852 25.8114 6.90193 24.8165 8.76739 24.3191C10.4463 23.8838 12.2496 23.946 14.0528 24.63C15.6074 25.1896 17.2241 25.3762 18.8408 25.1896C21.7012 24.8787 24.5616 23.262 26.6758 21.4587C26.8001 21.3344 26.9245 21.2722 27.0488 21.1478L27.2354 20.9613V20.7747C27.2354 20.4016 27.2976 19.9664 27.2976 19.5933L27.3597 18.1631Z" fill="#007AFF"/>
<path d="M3.73045 12.4423L3.54391 12.0692L3.73045 12.4423C4.10354 12.2557 4.53883 12.1313 4.91192 12.007C6.59083 11.5717 8.3941 11.6339 10.1974 12.3179C11.3788 12.7532 12.5603 12.9397 13.8661 12.9397C16.4777 12.9397 19.0894 12.007 21.5145 10.2037L22.4472 9.45752L22.7581 9.20879L22.1985 8.77351C22.0119 8.58697 21.7632 8.40043 21.5145 8.27607L21.1414 8.02734L20.8305 8.27607C20.7061 8.33825 20.6439 8.46261 20.5195 8.52479C17.2239 11.0121 13.9283 11.6961 10.8192 10.5146C8.58065 9.70625 6.34209 9.51971 4.10355 10.2037C3.917 10.2659 3.73045 10.3281 3.48173 10.3902L3.35738 10.4524L3.17082 10.639C3.17082 10.7012 3.10865 10.7012 3.04647 10.7633C2.79774 11.1364 2.48682 11.4473 2.23809 11.8204L1.05664 13.6237L2.98428 12.6288C3.29519 12.6288 3.54391 12.5044 3.73045 12.4423Z" fill="#007AFF"/>
<path d="M8.82967 8.21393L9.01621 8.27611C9.82457 8.58702 11.0682 8.89793 12.6228 8.89793C14.2395 8.89793 15.794 8.52484 17.3486 7.90302L19.2762 6.97029L17.9704 6.53503C17.5973 6.41067 17.2242 6.2863 16.7889 6.22412H16.6024L16.4159 6.28629C16.2293 6.34847 16.0428 6.47285 15.8562 6.53503C13.9908 7.21903 12.1253 7.34339 10.322 6.84594C10.1355 6.78376 9.94894 6.72156 9.7624 6.65938L9.57586 6.5972L9.3893 6.65938C9.01621 6.78375 8.64313 6.90812 8.27004 7.09466L6.83984 7.71648L8.33222 8.15174C8.45659 8.08956 8.64312 8.15175 8.82967 8.21393Z" fill="#007AFF"/>
<path d="M39.8041 30V10.26H52.8241V13.088H43.4161V18.688H52.1801V21.516H43.4161V30H39.8041ZM55.5476 30V15.86H59.0476V30H55.5476ZM55.3516 13.2V9.784H59.2436V13.2H55.3516ZM62.8483 30V19.388C62.8483 18.8093 62.8297 18.2213 62.7923 17.624C62.755 17.0267 62.699 16.4387 62.6243 15.86H66.0123L66.2923 18.66H65.9563C66.4043 17.6707 67.067 16.9147 67.9443 16.392C68.8217 15.8507 69.839 15.58 70.9963 15.58C72.6577 15.58 73.9083 16.0467 74.7483 16.98C75.5883 17.9133 76.0083 19.3693 76.0083 21.348V30H72.5083V21.516C72.5083 20.3773 72.2843 19.5653 71.8363 19.08C71.407 18.576 70.7537 18.324 69.8763 18.324C68.7937 18.324 67.935 18.66 67.3003 19.332C66.6657 20.004 66.3483 20.9 66.3483 22.02V30H62.8483ZM85.1794 30.28C83.9474 30.28 82.8648 29.9907 81.9314 29.412C80.9981 28.8147 80.2701 27.9653 79.7474 26.864C79.2248 25.7627 78.9634 24.4467 78.9634 22.916C78.9634 21.3853 79.2248 20.0787 79.7474 18.996C80.2701 17.8947 80.9981 17.0547 81.9314 16.476C82.8648 15.8787 83.9474 15.58 85.1794 15.58C86.3741 15.58 87.4194 15.8787 88.3154 16.476C89.2301 17.0547 89.8368 17.8387 90.1354 18.828H89.8274L90.1354 15.86H93.4954C93.4394 16.4387 93.3834 17.0267 93.3274 17.624C93.2901 18.2213 93.2714 18.8093 93.2714 19.388V30H89.7994L89.7714 27.088H90.1074C89.8088 28.0587 89.2021 28.8333 88.2874 29.412C87.3728 29.9907 86.3368 30.28 85.1794 30.28ZM86.1594 27.592C87.2608 27.592 88.1474 27.2093 88.8194 26.444C89.4914 25.66 89.8274 24.484 89.8274 22.916C89.8274 21.348 89.4914 20.1813 88.8194 19.416C88.1474 18.6507 87.2608 18.268 86.1594 18.268C85.0581 18.268 84.1714 18.6507 83.4994 19.416C82.8274 20.1813 82.4914 21.348 82.4914 22.916C82.4914 24.484 82.8181 25.66 83.4714 26.444C84.1434 27.2093 85.0394 27.592 86.1594 27.592ZM97.0827 30V19.388C97.0827 18.8093 97.064 18.2213 97.0267 17.624C96.9894 17.0267 96.9334 16.4387 96.8587 15.86H100.247L100.527 18.66H100.191C100.639 17.6707 101.301 16.9147 102.179 16.392C103.056 15.8507 104.073 15.58 105.231 15.58C106.892 15.58 108.143 16.0467 108.983 16.98C109.823 17.9133 110.243 19.3693 110.243 21.348V30H106.743V21.516C106.743 20.3773 106.519 19.5653 106.071 19.08C105.641 18.576 104.988 18.324 104.111 18.324C103.028 18.324 102.169 18.66 101.535 19.332C100.9 20.004 100.583 20.9 100.583 22.02V30H97.0827ZM120.45 30.28C118.994 30.28 117.715 29.9813 116.614 29.384C115.531 28.7867 114.691 27.9373 114.094 26.836C113.496 25.716 113.198 24.3907 113.198 22.86C113.198 21.3293 113.496 20.0227 114.094 18.94C114.71 17.8573 115.559 17.0267 116.642 16.448C117.724 15.8693 118.994 15.58 120.45 15.58C121.383 15.58 122.288 15.7293 123.166 16.028C124.062 16.308 124.79 16.7187 125.35 17.26L124.286 19.696C123.782 19.2293 123.212 18.884 122.578 18.66C121.962 18.4173 121.355 18.296 120.758 18.296C119.507 18.296 118.527 18.688 117.818 19.472C117.127 20.256 116.782 21.3947 116.782 22.888C116.782 24.3813 117.127 25.5293 117.818 26.332C118.527 27.1347 119.507 27.536 120.758 27.536C121.336 27.536 121.934 27.424 122.55 27.2C123.184 26.976 123.763 26.6307 124.286 26.164L125.35 28.572C124.771 29.1133 124.034 29.5333 123.138 29.832C122.26 30.1307 121.364 30.28 120.45 30.28ZM134.622 30.28C132.251 30.28 130.394 29.6267 129.05 28.32C127.706 27.0133 127.034 25.2213 127.034 22.944C127.034 21.4693 127.323 20.1813 127.902 19.08C128.48 17.9787 129.283 17.12 130.31 16.504C131.355 15.888 132.568 15.58 133.95 15.58C135.312 15.58 136.451 15.8693 137.366 16.448C138.28 17.0267 138.971 17.8387 139.438 18.884C139.923 19.9293 140.166 21.152 140.166 22.552V23.476H129.862V21.628H137.674L137.198 22.02C137.198 20.7133 136.918 19.7147 136.358 19.024C135.816 18.3333 135.023 17.988 133.978 17.988C132.82 17.988 131.924 18.3987 131.29 19.22C130.674 20.0413 130.366 21.1893 130.366 22.664V23.028C130.366 24.5587 130.739 25.7067 131.486 26.472C132.251 27.2187 133.324 27.592 134.706 27.592C135.508 27.592 136.255 27.4893 136.946 27.284C137.655 27.06 138.327 26.7053 138.962 26.22L139.998 28.572C139.326 29.1133 138.523 29.5333 137.59 29.832C136.656 30.1307 135.667 30.28 134.622 30.28ZM141.002 30L149.122 19.192V20.732L141.282 10.26H145.51L151.194 18.128H150.046L155.702 10.26H159.958L152.09 20.732V19.192L160.238 30H155.982L149.99 21.768H151.222L145.23 30H141.002Z" fill="white"/>
</svg>
